<svg xmlns="http://www.w3.org/2000/svg" xmlns:xlink="http://www.w3.org/1999/xlink" version="1.1" width="320" height="300"><g id="0,0">
<circle cx="160" cy="50" r="20" stroke="black" stroke-width="2" fill="orange" />
<text x="160" y="50" fill="red" font-size="14" text-anchor="middle" dominant-baseline="middle">&amp;&amp;</text>
</g>
<g id="1,0">
<circle cx="80" cy="150" r="20" stroke="black" stroke-width="2" fill="orange" />
<text x="80" y="150" fill="red" font-size="14" text-anchor="middle" dominant-baseline="middle">!=</text>
<line x1="80" y1="130" x2="140" y2="60" style="stroke:black;stroke-width:2"/>
</g>
<g id="1,1">
<circle cx="240" cy="150" r="20" stroke="black" stroke-width="2" fill="orange" />
<text x="240" y="150" fill="red" font-size="14" text-anchor="middle" dominant-baseline="middle">!=</text>
<line x1="240" y1="130" x2="180" y2="60" style="stroke:black;stroke-width:2"/>
</g>
<g id="2,0">
<circle cx="40" cy="250" r="20" stroke="black" stroke-width="2" fill="lightgreen" />
<text x="40" y="250" fill="red" font-size="14" text-anchor="middle" dominant-baseline="middle">s1</text>
<line x1="40" y1="230" x2="60" y2="160" style="stroke:black;stroke-width:2"/>
</g>
<g id="2,1">
<circle cx="120" cy="250" r="20" stroke="black" stroke-width="2" fill="lightgreen" />
<text x="120" y="250" fill="red" font-size="14" text-anchor="middle" dominant-baseline="middle">abc123</text>
<line x1="120" y1="230" x2="100" y2="160" style="stroke:black;stroke-width:2"/>
</g>
<g id="2,2">
<circle cx="200" cy="250" r="20" stroke="black" stroke-width="2" fill="lightgreen" />
<text x="200" y="250" fill="red" font-size="14" text-anchor="middle" dominant-baseline="middle">s2</text>
<line x1="200" y1="230" x2="220" y2="160" style="stroke:black;stroke-width:2"/>
</g>
<g id="2,3">
<circle cx="280" cy="250" r="20" stroke="black" stroke-width="2" fill="lightgreen" />
<text x="280" y="250" fill="red" font-size="14" text-anchor="middle" dominant-baseline="middle">abc&#xA;123</text>
<line x1="280" y1="230" x2="260" y2="160" style="stroke:black;stroke-width:2"/>
</g>
</svg>