<svg xmlns="http://www.w3.org/2000/svg" xmlns:xlink="http://www.w3.org/1999/xlink" version="1.1" width="2560" height="600"><g id="0,0">
<circle cx="1280" cy="50" r="20" stroke="black" stroke-width="2" fill="orange" />
<text x="1280" y="50" fill="red" font-size="14" text-anchor="middle" dominant-baseline="middle">||</text>
</g>
<g id="1,0">
<circle cx="640" cy="150" r="20" stroke="black" stroke-width="2" fill="orange" />
<text x="640" y="150" fill="red" font-size="14" text-anchor="middle" dominant-baseline="middle">!</text>
<line x1="640" y1="130" x2="1260" y2="60" style="stroke:black;stroke-width:2"/>
</g>
<g id="1,1">
<circle cx="1920" cy="150" r="20" stroke="black" stroke-width="2" fill="orange" />
<text x="1920" y="150" fill="red" font-size="14" text-anchor="middle" dominant-baseline="middle">!</text>
<line x1="1920" y1="130" x2="1300" y2="60" style="stroke:black;stroke-width:2"/>
</g>
<g id="2,1">
<circle cx="960" cy="250" r="20" stroke="black" stroke-width="2" fill="lightgreen" />
<text x="960" y="250" fill="red" font-size="14" text-anchor="middle" dominant-baseline="middle">true</text>
<line x1="960" y1="230" x2="660" y2="160" style="stroke:black;stroke-width:2"/>
</g>
<g id="2,3">
<circle cx="2240" cy="250" r="20" stroke="black" stroke-width="2" fill="orange" />
<text x="2240" y="250" fill="red" font-size="14" text-anchor="middle" dominant-baseline="middle">!</text>
<line x1="2240" y1="230" x2="1940" y2="160" style="stroke:black;stroke-width:2"/>
</g>
<g id="3,7">
<circle cx="2400" cy="350" r="20" stroke="black" stroke-width="2" fill="orange" />
<text x="2400" y="350" fill="red" font-size="14" text-anchor="middle" dominant-baseline="middle">NOOP</text>
<line x1="2400" y1="330" x2="2260" y2="260" style="stroke:black;stroke-width:2"/>
</g>
<g id="4,15">
<circle cx="2480" cy="450" r="20" stroke="black" stroke-width="2" fill="orange" />
<text x="2480" y="450" fill="red" font-size="14" text-anchor="middle" dominant-baseline="middle">&gt;</text>
<line x1="2480" y1="430" x2="2420" y2="360" style="stroke:black;stroke-width:2"/>
</g>
<g id="5,30">
<circle cx="2440" cy="550" r="20" stroke="black" stroke-width="2" fill="lightgreen" />
<text x="2440" y="550" fill="red" font-size="14" text-anchor="middle" dominant-baseline="middle">7</text>
<line x1="2440" y1="530" x2="2460" y2="460" style="stroke:black;stroke-width:2"/>
</g>
<g id="5,31">
<circle cx="2520" cy="550" r="20" stroke="black" stroke-width="2" fill="lightgreen" />
<text x="2520" y="550" fill="red" font-size="14" text-anchor="middle" dominant-baseline="middle">9</text>
<line x1="2520" y1="530" x2="2500" y2="460" style="stroke:black;stroke-width:2"/>
</g>
</svg>