<svg xmlns="http://www.w3.org/2000/svg" xmlns:xlink="http://www.w3.org/1999/xlink" version="1.1" width="1280" height="500">\t<g id="0,0"><circle cx="640" cy="50" r="20" stroke="black" stroke-width="2" fill="orange" /><text x="640" y="50" fill="red" font-size="14" text-anchor="middle" dominant-baseline="middle">||</text></g>\n\t<g id="1,0"><circle cx="320" cy="150" r="20" stroke="black" stroke-width="2" fill="orange" /><text x="320" y="150" fill="red" font-size="14" text-anchor="middle" dominant-baseline="middle">NOOP</text><line x1="320" y1="130" x2="620" y2="60" style="stroke:black;stroke-width:2"/></g>\n\t<g id="1,1"><circle cx="960" cy="150" r="20" stroke="black" stroke-width="2" fill="orange" /><text x="960" y="150" fill="red" font-size="14" text-anchor="middle" dominant-baseline="middle">||</text><line x1="960" y1="130" x2="660" y2="60" style="stroke:black;stroke-width:2"/></g>\n\t<g id="2,1"><circle cx="480" cy="250" r="20" stroke="black" stroke-width="2" fill="orange" /><text x="480" y="250" fill="red" font-size="14" text-anchor="middle" dominant-baseline="middle">></text><line x1="480" y1="230" x2="340" y2="160" style="stroke:black;stroke-width:2"/></g>\n\t<g id="2,2"><circle cx="800" cy="250" r="20" stroke="black" stroke-width="2" fill="lightgreen" /><text x="800" y="250" fill="red" font-size="14" text-anchor="middle" dominant-baseline="middle">true</text><line x1="800" y1="230" x2="940" y2="160" style="stroke:black;stroke-width:2"/></g>\n\t<g id="2,3"><circle cx="1120" cy="250" r="20" stroke="black" stroke-width="2" fill="orange" /><text x="1120" y="250" fill="red" font-size="14" text-anchor="middle" dominant-baseline="middle">></text><line x1="1120" y1="230" x2="980" y2="160" style="stroke:black;stroke-width:2"/></g>\n\t<g id="3,2"><circle cx="400" cy="350" r="20" stroke="black" stroke-width="2" fill="lightgreen" /><text x="400" y="350" fill="red" font-size="14" text-anchor="middle" dominant-baseline="middle">29</text><line x1="400" y1="330" x2="460" y2="260" style="stroke:black;stroke-width:2"/></g>\n\t<g id="3,3"><circle cx="560" cy="350" r="20" stroke="black" stroke-width="2" fill="lightgreen" /><text x="560" y="350" fill="red" font-size="14" text-anchor="middle" dominant-baseline="middle">10</text><line x1="560" y1="330" x2="500" y2="260" style="stroke:black;stroke-width:2"/></g>\n\t<g id="3,6"><circle cx="1040" cy="350" r="20" stroke="black" stroke-width="2" fill="lightgreen" /><text x="1040" y="350" fill="red" font-size="14" text-anchor="middle" dominant-baseline="middle">d</text><line x1="1040" y1="330" x2="1100" y2="260" style="stroke:black;stroke-width:2"/></g>\n\t<g id="3,7"><circle cx="1200" cy="350" r="20" stroke="black" stroke-width="2" fill="orange" /><text x="1200" y="350" fill="red" font-size="14" text-anchor="middle" dominant-baseline="middle">+</text><line x1="1200" y1="330" x2="1140" y2="260" style="stroke:black;stroke-width:2"/></g>\n\t<g id="4,14"><circle cx="1160" cy="450" r="20" stroke="black" stroke-width="2" fill="lightgreen" /><text x="1160" y="450" fill="red" font-size="14" text-anchor="middle" dominant-baseline="middle">c</text><line x1="1160" y1="430" x2="1180" y2="360" style="stroke:black;stroke-width:2"/></g>\n\t<g id="4,15"><circle cx="1240" cy="450" r="20" stroke="black" stroke-width="2" fill="lightgreen" /><text x="1240" y="450" fill="red" font-size="14" text-anchor="middle" dominant-baseline="middle">d</text><line x1="1240" y1="430" x2="1220" y2="360" style="stroke:black;stroke-width:2"/></g>\n</svg>